<svg xmlns="http://www.w3.org/2000/svg" version="1.1" xmlns:xlink="http://www.w3.org/1999/xlink" width="512" height="512" x="0" y="0" viewBox="0 0 24 24" style="enable-background:new 0 0 512 512" xml:space="preserve" class=""><g><g fill="#000" fill-rule="evenodd" clip-rule="evenodd"><path d="M12 4a8 8 0 1 0 0 16 8 8 0 0 0 0-16zM2 12C2 6.477 6.477 2 12 2s10 4.477 10 10-4.477 10-10 10S2 17.523 2 12z" fill="#ffffff" opacity="1" data-original="#000000" class=""></path><path d="M7 12a1 1 0 0 1 1-1h8a1 1 0 1 1 0 2H8a1 1 0 0 1-1-1z" fill="#ffffff" opacity="1" data-original="#000000" class=""></path><path d="M12.293 15.707a1 1 0 0 1 0-1.414L14.586 12l-2.293-2.293a1 1 0 0 1 1.414-1.414l2.913 2.913c.439.438.439 1.15 0 1.588l-2.913 2.913a1 1 0 0 1-1.414 0z" fill="#ffffff" opacity="1" data-original="#000000" class=""></path></g></g></svg>